<?xml version="1.0" standalone="no"?>
<!DOCTYPE svg PUBLIC "-//W3C//DTD SVG 20010904//EN"
 "http://www.w3.org/TR/2001/REC-SVG-20010904/DTD/svg10.dtd">
<svg version="1.0" xmlns="http://www.w3.org/2000/svg"
 width="1218.000000pt" height="1280.000000pt" viewBox="0 0 1218.000000 1280.000000"
 preserveAspectRatio="xMidYMid meet">
<g transform="translate(0.000000,1280.000000) scale(0.100000,-0.100000)"
fill="#000000" stroke="none">
<path d="M9735 12788 c-307 -63 -491 -151 -668 -317 -163 -153 -298 -400 -336
-615 -15 -85 -13 -271 3 -358 69 -360 311 -677 628 -822 611 -281 1316 -8
1558 603 120 303 107 587 -41 886 -104 211 -318 418 -532 514 -197 88 -473
138 -612 109z"/>
<path d="M6771 11069 c-139 -4 -279 -9 -310 -13 -50 -5 -334 -30 -656 -56
-141 -12 -250 -22 -515 -49 -364 -38 -663 -67 -1015 -101 -427 -40 -826 -69
-1245 -90 -107 -5 -260 -16 -340 -25 -80 -8 -251 -24 -380 -35 -350 -30 -428
-39 -620 -66 -175 -24 -433 -74 -480 -92 -23 -9 -21 -11 30 -25 57 -17 117
-25 350 -52 74 -8 252 -28 395 -45 144 -16 344 -39 445 -50 102 -11 282 -32
400 -45 118 -14 283 -32 365 -40 83 -9 192 -20 243 -25 228 -24 290 -30 487
-50 116 -11 317 -29 448 -40 245 -20 279 -24 572 -59 687 -83 1125 -111 1737
-111 429 0 571 7 715 36 89 17 225 60 277 86 67 34 176 154 221 242 38 75 40
84 40 170 0 121 -21 164 -134 276 -102 101 -191 154 -341 204 -173 58 -267 65
-689 55z"/>
<path d="M10753 10060 c-149 -39 -260 -116 -318 -222 -26 -47 -30 -64 -33
-162 -11 -299 95 -551 438 -1041 228 -324 329 -481 378 -580 51 -103 102 -248
102 -289 0 -19 -25 -42 -117 -108 -268 -193 -606 -407 -868 -551 -131 -72
-218 -108 -550 -229 -259 -95 -558 -214 -641 -256 -73 -37 -174 -111 -174
-128 0 -7 28 -17 72 -24 61 -11 116 -9 357 9 696 52 1047 102 1436 201 353 91
628 205 860 358 127 84 316 270 362 357 40 77 77 205 92 320 7 50 17 127 23
171 11 86 10 114 -17 258 -23 129 -55 238 -134 453 -39 105 -91 258 -116 339
-57 186 -87 265 -141 379 -155 325 -402 594 -671 729 -68 34 -76 36 -170 35
-60 0 -126 -8 -170 -19z"/>
<path d="M6545 7740 c-198 -29 -394 -119 -603 -274 -178 -132 -570 -535 -809
-831 -172 -214 -601 -797 -681 -925 -152 -245 -256 -486 -299 -693 -15 -74
-16 -96 -5 -157 29 -170 117 -263 301 -316 159 -45 330 -26 491 56 135 69 325
235 794 699 465 460 792 845 1070 1260 283 424 390 827 263 993 -27 34 -55 51
-172 105 -77 36 -169 71 -205 79 -71 15 -72 15 -145 4z"/>
<path d="M7828 6745 c-102 -16 -215 -54 -313 -103 -355 -176 -592 -406 -1015
-982 -79 -107 -158 -213 -175 -235 -48 -60 -375 -531 -608 -876 -391 -580
-683 -1034 -1445 -2244 -267 -424 -595 -943 -730 -1155 -229 -360 -370 -595
-499 -835 -57 -106 -133 -268 -133 -285 0 -16 17 -12 76 16 45 21 80 54 208
197 223 250 539 555 879 851 493 428 673 596 1367 1281 207 203 591 579 854
835 830 806 1166 1173 1569 1715 322 432 527 813 607 1125 67 261 -17 540
-189 633 -112 61 -300 87 -453 62z"/>
<path d="M1062 3560 c-386 -41 -735 -280 -915 -628 -68 -132 -102 -237 -129
-406 -21 -128 -21 -134 -4 -252 9 -66 25 -151 35 -190 151 -582 723 -959 1320
-869 730 110 1183 855 944 1555 -126 371 -443 663 -822 760 -78 19 -255 41
-320 39 -20 -1 -69 -5 -109 -9z m341 -311 c193 -46 398 -183 513 -344 150
-211 203 -489 140 -736 -128 -502 -651 -790 -1141 -628 -330 109 -563 397
-606 749 -19 159 12 332 87 484 139 280 413 469 719 494 90 8 210 0 288 -19z"/>
</g>
</svg>
